
        <svg xmlns="http://www.w3.org/2000/svg" xmlns:xlink="http://www.w3.org/1999/xlink" version="1.1" width="3160.4062085280707" 
        height="673.3031382659859" viewBox="-32.08124170561421 0 3160.4062085280707 673.3031382659859">
			
			<g transform="scale(8.020310426403553) translate(10, 10)">
				<defs id="SvgjsDefs1066"></defs><g id="SvgjsG1067" featureKey="HKaMnE-0" transform="matrix(0.15737398065260574,0,0,0.15737398065260574,-11.868668415591511,-6.868533940754526)" fill="#05708a"><title xmlns="http://www.w3.org/2000/svg">Planet_1</title><path xmlns="http://www.w3.org/2000/svg" d="M441.65,307.2a3.92,3.92,0,0,0,.3-1,200.68,200.68,0,0,0,1.77-106.08s0,0,0-.05,0-.22-.08-.33A200,200,0,0,0,166.37,68.35a4,4,0,0,0-1.05.48l0,0a200.78,200.78,0,0,0-57.52,40.69l-.21.11a4,4,0,0,0-1.1,1.22,200.49,200.49,0,0,0-42.57,65.87,3.88,3.88,0,0,0-.37,1A199,199,0,0,0,50,250a201.31,201.31,0,0,0,2,28.6c0,.14,0,.28.06.43a199.81,199.81,0,0,0,63.05,118.54,3.73,3.73,0,0,0,.52.61,3.67,3.67,0,0,0,.76.55,199.33,199.33,0,0,0,99.36,48.33,4.1,4.1,0,0,0,.84.14c4.51.76,9.08,1.38,13.69,1.83a3.49,3.49,0,0,0,.65.06h0c6.26.59,12.6.91,19,.91a199.33,199.33,0,0,0,58.84-8.84,3.78,3.78,0,0,0,.85-.26A200.85,200.85,0,0,0,441.65,307.2ZM109.5,119.06c21,28.88,48.75,61.33,67,61.33,14.68,0,21.77-14.17,28-26.68,5.74-11.49,11.17-22.34,21-22.34,10.16,0,22.56,18.61,33.5,35,13.21,19.81,25.68,38.51,40,38.51,12.64,0,19.11-13.74,26.61-29.64,9.7-20.57,20.69-43.89,46.92-43.89,17,0,32.88,9.59,47.25,28.5a191.87,191.87,0,0,1,15.86,40.42c-5.83,7.24-11.87,15.33-17.74,23.18-16.5,22.08-35.2,47.12-45.37,47.12-9.83,0-15.26-10.85-21-22.34-6.26-12.51-13.34-26.68-28-26.68s-21.77,14.17-28,26.68c-5.74,11.49-11.17,22.34-21,22.34-10.16,0-22.56-18.61-33.5-35-13.21-19.8-25.68-38.51-40-38.51-14.68,0-21.76,14.17-28,26.68-5.74,11.49-11.17,22.34-21,22.34-10.16,0-22.56-18.61-33.5-35-13.2-19.8-25.68-38.51-40-38.51a36.56,36.56,0,0,0-4.38.26A192.73,192.73,0,0,1,109.5,119.06Zm292.44,13.18a54.93,54.93,0,0,0-29.39-8.71c-31.2,0-43.85,26.83-54,48.38-6.36,13.5-11.85,25.15-19.52,25.15-10.16,0-22.56-18.61-33.5-35-13.21-19.8-25.68-38.51-40-38.51-14.68,0-21.76,14.17-28,26.68-5.74,11.49-11.17,22.34-21,22.34-4,0-13.42-3-32.13-23a396.64,396.64,0,0,1-29.29-36.16,193.06,193.06,0,0,1,51.13-36.24c11,16.21,22.08,30.15,34.4,30.15,14.68,0,21.77-14.17,28-26.68,5.75-11.49,11.17-22.34,21-22.34,10.16,0,22.56,18.6,33.51,35,13.2,19.8,25.67,38.51,40,38.51,14.68,0,21.77-14.18,28-26.68a113.73,113.73,0,0,1,7.57-13.58A192.73,192.73,0,0,1,401.94,132.24ZM173.41,73.79a190.59,190.59,0,0,1,59.4-15.17c-4.57,5.16-8,12-11.22,18.45-5.75,11.49-11.17,22.35-21,22.35C192.24,99.42,182.36,86.81,173.41,73.79Zm93-15.25a191.81,191.81,0,0,1,85.75,28.67,121.22,121.22,0,0,0-8,14.37c-5.75,11.49-11.17,22.34-21,22.34-10.15,0-22.56-18.6-33.5-35C281.81,77.18,274.25,65.84,266.41,58.54Zm-196,123.07a24.8,24.8,0,0,1,8-1.22c10.16,0,22.56,18.61,33.5,35,13.21,19.81,25.68,38.51,40,38.51,14.68,0,21.77-14.17,28-26.68,5.74-11.49,11.17-22.34,21-22.34,10.16,0,22.56,18.61,33.5,35,13.21,19.8,25.68,38.51,40,38.51,14.68,0,21.76-14.17,28-26.68,5.74-11.49,11.17-22.34,21-22.34s15.26,10.85,21,22.34c6.25,12.51,13.34,26.68,28,26.68,14.1,0,31.5-23.3,51.66-50.27,4.54-6.09,9.2-12.32,13.76-18.15a193.91,193.91,0,0,1,4.19,40,191.66,191.66,0,0,1-6.42,49.28,28.63,28.63,0,0,0-14.17-4.18c-14.35,0-26.83,18.7-40,38.51-10.94,16.41-23.34,35-33.5,35-9.83,0-15.26-10.85-21-22.34-6.26-12.51-13.34-26.68-28-26.68s-21.77,14.17-28,26.68c-5.74,11.49-11.17,22.34-21,22.34-10.29,0-30-26.31-45.88-47.45C183.76,294,166.18,270.59,152,270.59c-14.68,0-21.76,14.17-28,26.68-5.74,11.49-11.17,22.34-21,22.34-14.39,0-31.66-21.83-43.18-42.5A194,194,0,0,1,57.84,250,191.27,191.27,0,0,1,70.43,181.61Zm-6.36,117c2.2,3.07,4.6,6.2,7.16,9.2,11.13,13,21.8,19.65,31.71,19.65,14.68,0,21.77-14.17,28-26.68,5.74-11.49,11.17-22.34,21-22.34,10.29,0,30,26.31,45.88,47.45C218.2,353,235.78,376.47,250,376.47c14.68,0,21.76-14.17,28-26.68,5.74-11.49,11.17-22.34,21-22.34s15.26,10.85,21,22.34c6.25,12.51,13.34,26.68,28,26.68,14.35,0,26.82-18.71,40-38.51,10.94-16.41,23.34-35,33.5-35,3.67,0,7.67,1.41,11.92,4.17A193,193,0,0,1,309.61,432.68a121.83,121.83,0,0,1-7.08-12.86c-6.26-12.51-13.34-26.68-28-26.68s-21.77,14.17-28,26.68c-4.54,9.08-9.24,18.44-16.08,21.35q-6.1-.63-12.09-1.64c-8.48-5.64-17.55-19.22-26.33-32.39-13.2-19.81-25.68-38.51-40-38.51-8.61,0-19.64,6.93-33.67,21.15A192.3,192.3,0,0,1,64.07,298.6ZM203.52,436.46a191.76,191.76,0,0,1-79.41-41.4C140,379,148.35,376.47,152,376.47c10.16,0,22.56,18.61,33.5,35C191.59,420.68,197.5,429.55,203.52,436.46ZM242.14,442c4.58-5.08,8-11.94,11.37-18.66,5.74-11.49,11.17-22.34,21-22.34s15.26,10.85,21,22.34c2,4,4,8,6.31,11.73A191.49,191.49,0,0,1,250,442.16C247.37,442.16,244.75,442.09,242.14,442Z"></path></g><g id="SvgjsG1068" featureKey="J3GnXt-0" transform="matrix(0.7048401847985911,0,0,0.7048401847985911,82.12580743078814,25.98716849152408)" fill="#05708a"><path d="M17.998 20 l-2.9199 0 l-0.92773 -10.635 l-3.5742 10.635 l-1.8945 0 l-3.5742 -10.635 l-0.9375 10.635 l-2.9297 0 l1.1816 -14.111 l4.1797 0 l3.0078 8.8574 l3.0469 -8.8574 l4.1797 0 z M39.165507812499996 20 l-1.0254 -2.9102 l-5.9277 0 l-1.0254 2.9102 l-2.998 0 l5.1953 -14.111 l3.584 0 l5.1953 14.111 l-2.998 0 z M33.0713078125 14.6387 l4.209 0 l-2.0996 -5.9863 z M60.39058125 20 l-3.6719 -6.2109 l-0.84961 0 l0 6.2109 l-2.9297 0 l0 -14.111 l5.1172 0 c3.1934 0 4.541 1.8848 4.541 4.2188 c0 1.8945 -1.0742 3.125 -2.9883 3.5352 l4.248 6.3574 l-3.4668 0 z M55.86918125 8.32 l0 3.3691 l1.7285 0 c1.5625 0 2.1973 -0.66406 2.1973 -1.6797 c0 -1.0059 -0.63477 -1.6895 -2.1973 -1.6895 l-1.7285 0 z M85.2489140625 5.888999999999999 l-4.6387 7.3535 l0 6.7578 l-2.9395 0 l0 -6.6895 l-4.668 -7.4219 l3.2422 0 l2.8809 4.8047 l2.8906 -4.8047 l3.2324 0 z M98.8184 17.4121 l4.4238 0 l0 2.5879 l-7.3535 0 l0 -14.111 l2.9297 0 l0 11.523 z M122.3195703125 8.467 l-5.2344 0 l0 3.2031 l4.6387 0 l0 2.5488 l-4.6387 0 l0 3.1934 l5.2344 0 l0 2.5879 l-8.1836 0 l0 -14.111 l8.1836 0 l0 2.5781 z M141.57226875 12.5488 c1.5918 0.43945 2.6563 1.4844 2.6563 3.4961 c0 2.3828 -1.4453 3.9551 -4.4238 3.9551 l-5.8105 0 l0 -14.111 l4.5703 0 c3.0469 0 4.6484 1.4648 4.6484 3.8672 c0 1.2402 -0.53711 2.2559 -1.6406 2.793 z M138.59376875 8.32 l-1.7773 0 l0 3.3203 l1.9043 0 c1.25 0 1.7969 -0.74219 1.7969 -1.6992 c0 -0.9375 -0.61523 -1.6211 -1.9238 -1.6211 z M139.25776875 17.4902 c1.582 0 2.1289 -0.84961 2.1289 -1.7676 c0 -0.9375 -0.53711 -1.8262 -2.1875 -1.8262 l-2.3828 0 l0 3.5938 l2.4414 0 z M161.7431921875 20.19531 c-4.1504 0 -7.2168 -2.832 -7.2168 -7.2559 c0 -4.4336 3.0664 -7.2461 7.2168 -7.2461 c4.1406 0 7.207 2.8125 7.207 7.2461 c0 4.4238 -3.0664 7.2559 -7.207 7.2559 z M161.7431921875 17.5098 c2.4316 0 4.2969 -1.709 4.2969 -4.5703 c0 -2.8516 -1.8652 -4.5508 -4.2969 -4.5508 s-4.2969 1.6992 -4.2969 4.5508 c0 2.8613 1.8652 4.5703 4.2969 4.5703 z M189.9415625 5.888999999999999 l2.9199 0 l0 14.111 l-3.3887 0 l-6.25 -10.088 l0 10.088 l-2.9199 0 l0 -14.111 l3.3496 0 l6.2891 10.029 l0 -10.029 z M213.3547265625 8.467 l-5.2344 0 l0 3.2031 l4.6387 0 l0 2.5488 l-4.6387 0 l0 3.1934 l5.2344 0 l0 2.5879 l-8.1836 0 l0 -14.111 l8.1836 0 l0 2.5781 z M238.8818640625 20 l0 -14.111 l5.1074 0 c4.502 0 6.7285 2.832 6.7285 7.0508 c0 4.2285 -2.2266 7.0605 -6.7285 7.0605 l-5.1074 0 z M241.8115640625 17.4121 l2.0313 0 c2.5977 0 3.7891 -1.6211 3.7891 -4.4727 s-1.1914 -4.4727 -3.7891 -4.4727 l-2.0313 0 l0 8.9453 z M272.70496875 5.888999999999999 l-4.6387 7.3535 l0 6.7578 l-2.9395 0 l0 -6.6895 l-4.668 -7.4219 l3.2422 0 l2.8809 4.8047 l2.8906 -4.8047 l3.2324 0 z M292.9835546875 5.888999999999999 l2.9199 0 l0 14.111 l-3.3887 0 l-6.25 -10.088 l0 10.088 l-2.9199 0 l0 -14.111 l3.3496 0 l6.2891 10.029 l0 -10.029 z M317.65671875 20 l-1.0254 -2.9102 l-5.9277 0 l-1.0254 2.9102 l-2.998 0 l5.1953 -14.111 l3.584 0 l5.1953 14.111 l-2.998 0 z M311.56251875 14.6387 l4.209 0 l-2.0996 -5.9863 z M347.6024921875 20 l-2.9199 0 l-0.92773 -10.635 l-3.5742 10.635 l-1.8945 0 l-3.5742 -10.635 l-0.9375 10.635 l-2.9297 0 l1.1816 -14.111 l4.1797 0 l3.0078 8.8574 l3.0469 -8.8574 l4.1797 0 z M359.3262 20 l0 -14.111 l2.9297 0 l0 14.111 l-2.9297 0 z M380.8056921875 20.19531 c-4.1504 0 -7.2168 -2.8223 -7.2168 -7.2559 s3.0664 -7.2461 7.2168 -7.2461 c3.1445 0 5.6641 1.6113 6.6699 4.2871 l-2.7344 0.99609 c-0.625 -1.6406 -2.1191 -2.5879 -3.9355 -2.5879 c-2.4316 0 -4.2969 1.6992 -4.2969 4.5508 s1.8652 4.5605 4.2969 4.5605 c1.8164 0 3.3105 -0.95703 3.9355 -2.5977 l2.7344 0.99609 c-1.0059 2.6758 -3.5254 4.2969 -6.6699 4.2969 z M403.222684375 20.19531 c-3.0273 0 -5.3906 -1.4551 -5.8203 -4.1016 l3.0273 -0.69336 c0.19531 1.582 1.3574 2.4023 2.9102 2.4023 c1.1914 0 2.1387 -0.52734 2.1289 -1.7188 c-0.0097656 -1.3281 -1.5723 -1.748 -3.291 -2.2754 c-2.0703 -0.64453 -4.2871 -1.4063 -4.2871 -4.0039 c0 -2.627 2.1484 -4.1113 4.9805 -4.1113 c2.4805 0 4.9805 1.0059 5.5469 3.7109 l-2.832 0.70313 c-0.26367 -1.4063 -1.2109 -2.0215 -2.5391 -2.0215 c-1.1816 0 -2.1875 0.48828 -2.1875 1.6504 c0 1.084 1.3867 1.4453 2.9883 1.9238 c2.1289 0.64453 4.6484 1.4648 4.6484 4.2773 c0 2.998 -2.5098 4.2578 -5.2734 4.2578 z"></path></g>
			</g>
		</svg>
	